<svg xmlns="http://www.w3.org/2000/svg" xmlns:xlink="http://www.w3.org/1999/xlink" width="500" zoomAndPan="magnify" viewBox="0 0 375 79.499998" height="106" preserveAspectRatio="xMidYMid meet" version="1.0"><defs><g/><clipPath id="ed5eb13406"><path d="M 1.171875 0 L 373.828125 0 L 373.828125 79.003906 L 1.171875 79.003906 Z M 1.171875 0 " clip-rule="nonzero"/></clipPath><clipPath id="a21ad13a6a"><path d="M 160 0 L 218 0 L 218 79.003906 L 160 79.003906 Z M 160 0 " clip-rule="nonzero"/></clipPath><clipPath id="cfea753605"><path d="M 164.914062 -10.1875 L 219.980469 93.0625 L 213.402344 96.570312 L 158.339844 -6.679688 Z M 164.914062 -10.1875 " clip-rule="nonzero"/></clipPath><clipPath id="46d16feb98"><path d="M 164.914062 -10.1875 L 219.980469 93.0625 L 213.402344 96.570312 L 158.339844 -6.679688 Z M 164.914062 -10.1875 " clip-rule="nonzero"/></clipPath></defs><g clip-path="url(#ed5eb13406)"><rect x="-37.5" width="450" fill="#ffed00" y="-7.95" height="95.399997" fill-opacity="1"/></g><g fill="#000000" fill-opacity="1"><g transform="translate(28.113406, 63.363033)"><g><path d="M 6.046875 0 L 6.046875 -48.078125 L 16.25 -48.078125 L 16.25 -8.421875 L 35.75 -8.421875 L 35.75 0 Z M 6.046875 0 "/></g></g></g><g fill="#000000" fill-opacity="1"><g transform="translate(120.033126, 63.363033)"><g><path d="M 24.59375 0 L 14.40625 0 L 14.40625 -39.59375 L 1.34375 -39.59375 L 1.34375 -48.078125 L 37.65625 -48.078125 L 37.65625 -39.59375 L 24.59375 -39.59375 Z M 24.59375 0 "/></g></g></g><g fill="#000000" fill-opacity="1"><g transform="translate(212.906207, 63.363033)"><g><path d="M 6.046875 0 L 6.046875 -48.078125 L 16.25 -48.078125 L 16.25 -8.421875 L 35.75 -8.421875 L 35.75 0 Z M 6.046875 0 "/></g></g></g><g fill="#000000" fill-opacity="1"><g transform="translate(304.825927, 63.363033)"><g><path d="M 21.015625 -28.28125 L 31.046875 -48.078125 L 42.03125 -48.078125 L 26.078125 -18.703125 L 26.078125 0 L 15.953125 0 L 15.953125 -18.375 L 0 -48.078125 L 11.046875 -48.078125 Z M 21.015625 -28.28125 "/></g></g></g><g clip-path="url(#a21ad13a6a)"><g clip-path="url(#cfea753605)"><g clip-path="url(#46d16feb98)"><path fill="#ffffff" d="M 217.550781 88.503906 L 167.21875 -5.867188 C 166.226562 -7.726562 163.914062 -8.429688 162.050781 -7.4375 C 160.191406 -6.445312 159.484375 -4.132812 160.476562 -2.269531 L 210.808594 92.097656 C 211.800781 93.960938 214.117188 94.664062 215.976562 93.671875 C 217.839844 92.679688 218.542969 90.367188 217.550781 88.503906 Z M 217.550781 88.503906 " fill-opacity="1" fill-rule="nonzero"/></g></g></g></svg>